<?xml version="1.0" encoding="UTF-8" standalone="no"?>
<!-- Created with Inkscape (http://www.inkscape.org/) -->

<svg
   xmlns:dc="http://purl.org/dc/elements/1.1/"
   xmlns:cc="http://creativecommons.org/ns#"
   xmlns:rdf="http://www.w3.org/1999/02/22-rdf-syntax-ns#"
   xmlns:svg="http://www.w3.org/2000/svg"
   xmlns="http://www.w3.org/2000/svg"
   xmlns:sodipodi="http://sodipodi.sourceforge.net/DTD/sodipodi-0.dtd"
   xmlns:inkscape="http://www.inkscape.org/namespaces/inkscape"
   width="210mm"
   height="297mm"
   viewBox="0 0 744.09448819 1052.3622047"
   id="svg2"
   version="1.1"
   inkscape:version="0.91 r13725"
   sodipodi:docname="logo.svg">
  <defs
     id="defs4" />
  <sodipodi:namedview
     id="base"
     pagecolor="#ffffff"
     bordercolor="#666666"
     borderopacity="1.0"
     inkscape:pageopacity="0.0"
     inkscape:pageshadow="2"
     inkscape:zoom="0.35"
     inkscape:cx="-132.14286"
     inkscape:cy="514.28571"
     inkscape:document-units="px"
     inkscape:current-layer="layer1"
     showgrid="false"
     showborder="false"
     inkscape:window-width="2560"
     inkscape:window-height="1376"
     inkscape:window-x="0"
     inkscape:window-y="27"
     inkscape:window-maximized="1" />
  <metadata
     id="metadata7">
    <rdf:RDF>
      <cc:Work
         rdf:about="">
        <dc:format>image/svg+xml</dc:format>
        <dc:type
           rdf:resource="http://purl.org/dc/dcmitype/StillImage" />
        <dc:title></dc:title>
      </cc:Work>
    </rdf:RDF>
  </metadata>
  <g
     inkscape:label="Layer 1"
     inkscape:groupmode="layer"
     id="layer1">
    <path
       style="fill:none;fill-rule:evenodd;stroke:#000000;stroke-width:10;stroke-linecap:butt;stroke-linejoin:miter;stroke-opacity:1;stroke-miterlimit:4;stroke-dasharray:none"
       d="m -2348.5714,752.3622 c 0,-28.52778 -1.8477,-55.96193 -8.5715,-82.85714 -9.3628,-37.4514 -0.5049,-131.58865 2.8572,-168.57143 4.9103,-54.01369 -2.8572,-111.16306 -2.8572,-165.71428 0,-26.32008 -1.4547,-54.12866 2.8572,-80 1.9805,-11.88287 9.2736,-22.43326 11.4286,-34.28572 6.8771,-37.82439 -0.7968,-83.1188 -5.7143,-120 -10.3165,-77.373827 12.8235,-160.201979 0,-237.14285 -5.2203,-31.32188 -9.7523,-62.55131 -14.2857,-94.28572 -2.6895,-18.82607 -2.7802,-37.91105 -2.8572,-57.14286 74.1629,-14.17974 109.5587,-13.29843 165.7143,42.85715 19.5719,19.57192 29.421,52.74146 48.5714,74.28571 47.1809,53.0785 72.8034,96.541111 100,160.000002 20.2043,47.143354 54.2387,96.860457 62.8572,148.571428 17.3495,104.09744 -6.5938,200.29485 -28.5715,302.85714 -5.6055,26.15898 -4.5385,53.78629 -8.5714,80 -3.5803,23.27179 -35.8304,115.83046 -54.2857,134.28572 -55.9661,55.96612 -161.5534,62.20526 -231.4286,97.14285"
       id="path4154"
       inkscape:connector-curvature="0" />
    <path
       style="fill:none;fill-rule:evenodd;stroke:#000000;stroke-width:10;stroke-linecap:butt;stroke-linejoin:miter;stroke-opacity:1;stroke-miterlimit:4;stroke-dasharray:none"
       d="m -1840,438.07649 c 11.3396,48.38591 21.5084,97.16043 34.2857,145.71429 12.8611,48.87201 27.2108,98.91127 37.1429,148.57142 5.6849,28.42454 15.246,57.19059 20,85.71429 1.8744,11.24678 -2.4453,43.26906 5.7143,51.42857 4.1942,4.19421 61.3895,-85.66229 65.7142,-91.42857 40.6876,-54.25004 72.5711,-115.99853 88.5715,-180 10.3842,-41.53676 5.062,-112.98111 20,-142.85714"
       id="path4156"
       inkscape:connector-curvature="0" />
    <path
       style="fill:none;fill-rule:evenodd;stroke:#000000;stroke-width:10;stroke-linecap:butt;stroke-linejoin:miter;stroke-opacity:1;stroke-miterlimit:4;stroke-dasharray:none"
       d="m -1460,463.79078 c -4.7763,87.17416 -2.8571,175.24294 -2.8571,262.85714 0,22.07898 3.9528,49.68804 0,71.42857 -2.7396,15.06738 -5.7143,24.40009 -5.7143,40"
       id="path4158"
       inkscape:connector-curvature="0" />
    <path
       style="fill:none;fill-rule:evenodd;stroke:#000000;stroke-width:10;stroke-linecap:butt;stroke-linejoin:miter;stroke-opacity:1;stroke-miterlimit:4;stroke-dasharray:none"
       d="m -1277.1429,520.93363 c -32.2999,139.34335 -14.2857,288.94313 -14.2857,431.42857"
       id="path4160"
       inkscape:connector-curvature="0" />
    <path
       style="fill:none;fill-rule:evenodd;stroke:#000000;stroke-width:10;stroke-linecap:butt;stroke-linejoin:miter;stroke-opacity:1;stroke-miterlimit:4;stroke-dasharray:none"
       d="m -1271.4286,532.3622 c 17.9136,-1.81458 52.7561,-15.05053 71.4286,-5.71428 24.1132,12.05659 42.2889,62.86511 51.4286,85.71428 6.2344,15.58601 16.4932,25.32309 20,42.85715 3.4375,17.18769 20.6714,100.17142 17.1428,114.28571 -6.5602,26.24077 -33.91,82.35624 -51.4285,105.71429 -11.0553,14.74035 -34.7145,23.71465 -42.8572,40 -2.6824,5.36487 -7.2954,15.86684 -11.4286,20 -1.059,1.05905 -9.6634,1.97456 -11.4285,2.85714 -35.2825,17.64124 -41.1181,20 -77.1429,20"
       id="path4162"
       inkscape:connector-curvature="0" />
    <path
       style="fill:none;fill-rule:evenodd;stroke:#000000;stroke-width:10;stroke-linecap:butt;stroke-linejoin:miter;stroke-opacity:1;stroke-miterlimit:4;stroke-dasharray:none"
       d="m -991.42857,546.64792 c -26.15533,73.52901 -30.44863,152.16065 -40.00003,228.57143 -4.4618,35.69454 -11.8076,77.72563 -5.7143,114.28571 2.4029,14.41703 8.5715,28.05878 8.5715,42.85714"
       id="path4164"
       inkscape:connector-curvature="0" />
    <path
       style="fill:none;fill-rule:evenodd;stroke:#000000;stroke-width:10;stroke-linecap:butt;stroke-linejoin:miter;stroke-opacity:1;stroke-miterlimit:4;stroke-dasharray:none"
       d="m -968.57143,546.64792 c 6.13291,-18.43501 32.14936,-41.6645 54.28572,-34.28572 4.34472,1.44824 9.45568,12.31284 11.42857,14.28572 55.17516,55.17517 15.76388,151.82045 5.71428,217.14286 -4.92354,32.00299 -4.29467,64.31259 -14.28571,94.28571 -5.56138,16.68413 -26.38936,32.44118 -37.14286,48.57143 -14.63559,21.95338 -28.19507,64.09754 -54.28567,77.14286 -4.36,2.18 -9.4596,-2.85715 -14.2858,-2.85715"
       id="path4166"
       inkscape:connector-curvature="0" />
    <path
       style="fill:none;fill-rule:evenodd;stroke:#000000;stroke-width:10;stroke-linecap:butt;stroke-linejoin:miter;stroke-miterlimit:4;stroke-dasharray:none;stroke-opacity:1"
       d="m -754.28572,726.64792 c 38.36356,8.66007 85.87098,-0.23504 108.57143,-34.28571 18.80375,-28.20563 -44.98721,-89.66204 -80,-37.14286 -7.55566,11.33349 -36.68342,48.01144 -34.28571,60 0.83529,4.17647 6.41449,7.22735 5.71428,11.42857 -0.49676,2.98056 -15.60042,17.37059 -8.57143,31.42857 29.83125,59.66249 118.91961,51.19646 165.71429,20"
       id="path4168"
       inkscape:connector-curvature="0" />
    <path
       style="fill:none;fill-rule:evenodd;stroke:#000000;stroke-width:10;stroke-linecap:butt;stroke-linejoin:miter;stroke-opacity:1;stroke-miterlimit:4;stroke-dasharray:none"
       d="m -494.28571,472.3622 c 10.23224,15.34837 10.51403,12.51341 14.28571,25.71429 10.29203,36.02211 7.62551,74.79747 14.28571,111.42857 1.90477,10.47619 0.95239,21.90476 5.71429,31.42857 0.95238,1.90477 4.36299,7.22014 2.85714,5.71429 -19.28495,-19.28496 -4.29573,-69.96994 2.85715,-91.42857 9.52888,-28.58664 19.87714,-69.07071 34.28571,-94.28572 2.56134,-4.48234 15.08535,-12.2282 17.14286,-14.28571 35.62519,-35.62519 76.02124,-91.18064 134.28571,-82.85714 17.91821,2.55974 32.10752,13.41443 48.57143,20 22.48052,8.99221 60.79766,36.67868 68.57143,60"
       id="path4170"
       inkscape:connector-curvature="0" />
  </g>
</svg>
